<?xml version="1.0" encoding="UTF-8" standalone="no"?>
<svg
   width="4000"
   height="5500"
   fill-rule="evenodd"
   version="1.1"
   id="svg5"
   sodipodi:docname="cuddles.svg"
   inkscape:version="1.4 (e7c3feb1, 2024-10-09)"
   xmlns:inkscape="http://www.inkscape.org/namespaces/inkscape"
   xmlns:sodipodi="http://sodipodi.sourceforge.net/DTD/sodipodi-0.dtd"
   xmlns="http://www.w3.org/2000/svg"
   xmlns:svg="http://www.w3.org/2000/svg">
  <defs
     id="defs5" />
  <sodipodi:namedview
     id="namedview5"
     pagecolor="#ffffff"
     bordercolor="#000000"
     borderopacity="0.25"
     inkscape:showpageshadow="2"
     inkscape:pageopacity="0.0"
     inkscape:pagecheckerboard="0"
     inkscape:deskcolor="#d1d1d1"
     inkscape:zoom="0.26070239"
     inkscape:cx="891.82153"
     inkscape:cy="1219.7817"
     inkscape:window-width="1456"
     inkscape:window-height="901"
     inkscape:window-x="0"
     inkscape:window-y="38"
     inkscape:window-maximized="0"
     inkscape:current-layer="svg5" />
  <path
     d="m 785.661,2397.539 c -19.65244,1.7737 -69.73593,41.5553 -38.661,32.053 -23.70945,13.6847 -43.5972,38.3437 -40.53325,76.8599 -10.07657,35.5173 22.38027,73.5989 56.34225,64.6211 29.74949,-12.4932 37.06955,-15.3668 52.286,-38.248 19.18105,-27.5359 27.95172,-62.0871 30.97,-90.365 -4.76427,-21.3318 -15.6517,-31.7147 -35.016,-42.901 -8.13138,-2.6725 -16.84773,-4.3512 -25.388,-2.02 z M 2378,2398 c -9.6187,11.828 -2.736,9.8784 -13.558,7.384 -22.2393,18.3575 -40.3611,51.8984 -40.976,85.116 -4.4237,39.9844 14.5992,76.5069 57.0415,66.6708 43.1766,-13.6702 57.8974,-64.4888 57.8575,-105.0038 -1.3577,-19.9473 -18.6915,-38.0067 -32.479,-49.847 -8.5654,-4.4899 -18.2497,-6.937 -27.886,-4.32 z"
     fill="#fafafa"
     id="path1"
     style="display:inline" />
  <path
     d="m 1742.0104,2880.0072 c -99.0047,7.4288 -210.6377,13.3482 -308.7475,14.1522 -2.2201,60.9172 47.9808,136.6478 79.6216,192.4022 36.1029,92.6183 134.5526,53.1527 180.3015,-9.9676 33.9985,-58.3397 93.8671,-119.9009 91.6062,-192.5017 l -17.6777,-5.4975 z"
     fill="#516681"
     id="path2"
     sodipodi:nodetypes="ccccccc"
     style="display:inline" />
  <path
     d="M 1360.923,199.20871 C 1120.9379,267.7014 946.50529,478.54228 788.407,659.289 503.09002,1024.8509 370.13347,1542.984 445.522,1976.645 c 8.15842,176.4723 80.32063,352.3888 115.87385,527.0667 -50.10163,119.2369 -30.7296,282.3387 96.35415,342.7293 60.70888,36.4019 132.36412,39.8508 170.24558,93.4446 27.48124,31.1347 53.4233,64.4034 -17.87158,94.1144 -171.70148,76.6826 -330.35631,244.4587 -293.838,448.5 26.6826,205.7832 199.47866,346.2355 284.014,527.2 81.72167,132.7496 120.65052,342.7757 -28.401,443.067 C 625.76797,4555.9886 438.50104,4422.9171 406.67912,4261 c -16.01159,-65.6374 7.43595,-108.0371 16.20888,-154.562 50.4195,-114.6731 -27.45294,-101.1198 -137.177,-46.417 -174.12936,116.5565 -171.03712,374.0684 -42.693,524.397 156.17642,197.6954 441.03519,202.6475 667.19,153.567 169.1154,-30.5118 316.4098,-149.1306 412.709,-286.985 121.5098,-241.8026 161.9073,-558.0951 6.19,-792.706 -24.9292,-67.7496 -102.9509,-119.8049 -100.588,-191.512 80.3853,-46.3815 125.7883,70.1108 172.255,119.084 154.6484,210.8307 230.2843,493.089 146.7706,744.5938 -33.214,133.6004 -107.0927,239.992 -139.4286,370.3242 -128.0455,462.7091 128.3741,713.0443 191.277,736.9332 43.0505,19.2652 101.6725,9.2885 134.6722,-2.7563 43.5604,-21.9893 90.4297,-56.2084 110.2588,-89.2609 25.4344,-36.742 19.1929,-151.159 -66.708,-132.752 -153.9047,59.0816 -234.6285,-168.0502 -119.741,-251.629 235.0101,-210.8695 484.2301,-443.51 568.112,-760.451 47.2317,-204.4667 -22.3184,-409.0491 -106.628,-592.101 -9.6515,-22.113 -56.233,-116.9772 -2.559,-89.666 127.6335,67.2996 198.8295,209.2949 199.343,351.965 19.597,185.03 106.3947,373.9258 271.663,465.714 132.5436,70.2561 291.552,72.9413 437.694,72.704 221.7464,-15.6105 426.4699,-168.0285 486.5,-384.464 64.0726,-223.893 91.2861,-487.1096 283.75,-644.389 29.8274,-8.6195 67.4652,-50.7736 94.663,-18.549 43.9061,13.2248 79.2485,-58.8469 36.459,-58.203 -107.521,-163.5383 -351.1706,-129.3436 -477.234,9.618 -185.2449,179.5559 -240.7805,438.7548 -339.408,663.246 -49.1267,98.4201 -171.0141,65.1582 -237.23,-3.713 -98.4421,-100.9837 -167.9472,-243.0162 -135.801,-388.2057 22.1259,-210.9669 -38.8365,-448.9941 -227.047,-568.4083 -36.3434,-33.4817 -135.2246,-41.196 -85.152,-106.573 37.1004,-62.4117 104.316,-42.3535 148,-92.798 94.8555,-80.7171 80.5519,-222.2289 61.63,-335.548 91.4133,-348.576 198.1986,-727.1446 63.017,-1079.6 C 2560.2464,1047.735 2329.8505,735.92693 2076.158,456.389 1940.5948,310.09078 1766.2704,168.96432 1555.5,173.32528 m 833.265,2174.54452 c -42.6911,16.7043 -54.9282,37.8583 -81.6516,73.669 -21.0122,29.9751 -26.4024,44.0718 -38.4304,76.4612 -8.0477,94.3457 -21.6406,193.372 41.2951,274.8116 74.792,55.3402 198.2679,17.9466 236.9519,-73.4434 20.5194,-53.2531 22.4818,-122.3555 -2.3239,-190.0086 -35.6354,-76.7312 -66.8072,-164.1512 -155.8411,-161.4898 z m -1522.54956,27.4123 c -48.64481,-75.4564 -189.18534,36.6779 -207.36023,160.0416 -15.11431,93.7505 -33.90081,264.3522 92.39979,276.1373 90.60557,-6.0737 122.16691,-44.8868 162.18077,-88.9197 78.03526,-106.4554 42.3152,-204.4445 -25.69844,-313.9279 m 915.60817,435.8944 c -149.2988,13.098 -286.1484,11.3363 -437.3563,21.6405 17.1566,24.849 39.2623,5.7265 48.8537,48.7486 26.3263,74.4316 60.8017,145.0949 91.8387,204.7391 27.2071,42.0757 85.1174,72.3368 131.5237,40.33 38.5041,-25.6463 68.9185,-54.5377 99.5529,-90.1195 26.5573,-45.7925 31.2159,-55.5136 55.249,-103.5812 13.5199,-42.6921 26.1794,-79.3516 27.1207,-114.0338 M 3684.5,3246.139 c -139.6004,58.5476 -232.7354,195.3663 -305.587,323.94 -84.5644,194.5624 -113.534,430.2332 -229.5889,599.9485 -27.8114,73.6844 -65.7734,106.3684 -149.044,175.745 204.905,19.0121 400.6532,-131.2198 456.1179,-328.0285 65.1672,-226.5661 89.2033,-490.1684 283.513,-649.216 35.152,-33.984 49.421,-33.904 78.898,-48.037 66.0901,-10.6188 17.2499,-60.1693 -28.0626,-69.9347 -32.9206,-11.2073 -67.0065,-11.9566 -106.2464,-4.4133 m -1694.991,76.843 c 26.418,92.3122 128.5418,111.47 200.23,160.969 76.7947,60.33 -67.8313,-124.1111 -40.722,-97.951 -42.6787,-43.7276 -99.1701,-62.7143 -159.508,-63.018 z m -473.656,345.688 c 7.7957,55.2381 59.9627,102.6209 72.434,161.104 39.303,145.4931 48.5232,303.3394 28.449,449.936 67.0236,-69.0225 130.7956,-197.0474 82.782,-303.765 -31.854,-113.8889 -99.0125,-221.0541 -178.161,-306.445 z m -182.559,254.184 c 4.2795,158.842 -52.6739,318.3212 -149.675,446.66 C 1066.157,4539.329 877.03914,4714.4476 653.5,4679.004 519.10054,4644.1074 419.42301,4519.2952 385.36513,4389.998 345.89659,4280.7457 363.26491,4156.8688 398.44012,4055.7 222.23964,4100.5136 154.08698,4326.1484 242.648,4478.277 c 84.86522,177.4898 306.70614,239.474 481.84157,226.4695 106.45489,-8.7945 212.78428,-61.6013 317.58343,-87.6165 132.9648,-61.1069 228.8361,-189.7201 285.36,-321.13 24.8884,-118.9764 40.3748,-258.0424 16.196,-373.704 -3.2907,1.0304 -8.5883,-1.6214 -10.335,0.558 M 227.032,4183 C 0,0 0,0 227.032,4183 Z m 138.481,1.979 C 0,0 0,0 365.513,4184.979 Z M 817,4707.5 C 0,0 0,0 817,4707.5 Z m 944.5,552.399 c -43.0274,60.949 -237.6341,36.634 -168.36,95.347 64.5443,69.5808 206.2364,32.4614 235.4824,-56.4097 -21.0092,-14.1222 -32.8062,-52.9439 -67.1224,-38.9373 z"
     fill="#859dbb"
     id="path5"
     sodipodi:nodetypes="ccccccccccccccccccccccccccccccccccccccccccccccccccccccccccccccccccccccccccccccccccccccccccccccccccccccccccc"
     style="display:inline" />
  <path
     d="M 691.031,425.231 C 573.36665,501.73196 428.13799,557.31872 356.20055,684.76287 264.58594,842.22616 532.3838,870.2107 456,1004.554 396.76365,1196.7274 134.30017,1225.7256 81.956,1425 c -33.400094,42.0257 39.90705,206.8667 3.41,156 61.26322,92.4464 234.729,135.0972 105.525,268 -62.19176,124.8411 -163.074129,278.592 -68.842,414.979 46.06016,116.818 186.13638,100.9524 248.648,191.021 23.96489,115.3474 24.19382,273.5012 173.269,301.469 66.22055,60.1594 -17.49765,-91.1148 5.609,-44.719 -23.44872,-118.88 57.59874,-237.3636 -18.764,-348.596 C 379.58232,1914.5049 386.25242,1408.5341 594.604,979.372 723.81854,697.24317 937.51082,455.84512 1189.816,278.335 c 200.3986,-110.47347 467.3392,-144.6412 664.675,-9.831 206.4263,131.17138 355.2898,337.58937 502.543,530.017 226.2068,315.4724 447.7614,681.3578 400.525,1086.979 -16.5785,203.6255 -74.1207,401.1832 -123.835,598.151 22.9122,100.0222 24.3364,216.8695 -27.724,300.203 94.736,-32.3328 178.9956,-109.5021 166.599,-220.394 -19.6538,-140.249 124.7053,-143.128 200.566,-206.941 117.4982,-83.0547 137.7751,-244.704 62.24,-362.52 -20.4796,-96.2173 -125.9497,-173.1287 -103.15,-273.096 94.8392,-44.1453 197.285,-125.6966 164.363,-246.903 -41.6031,-190.2497 -254.6234,-245.1413 -358.602,-387.5 -61.6638,-80.449 -62.0487,-173.29764 36.955,-216.25 102.8074,-111.27734 1.2851,-253.9155 -107.512,-310.377 C 2497.0639,465.8042 2343.9928,347.46738 2182.827,239.587 2029.9148,153.79637 1860.4476,94.270712 1687.75,69.522 1294.9209,-14.78818 937.8758,247.10165 691.031,425.231 Z M 3684.5,3246.139 c -139.6004,58.5476 -232.7354,195.3663 -305.587,323.94 -87.9397,210.8306 -115.0869,448.4842 -256.157,636.227 -35.2353,50.484 -79.4474,103.8184 -123.3009,139.5005 252.7249,15.4694 423.6944,-158.7654 467.3899,-365.3065 56.6941,-217.5238 90.9,-465.5569 276.723,-615.289 28.719,-34.6487 86.7575,-40.0552 110.933,-66.956 -25.6292,-51.1179 -118.2204,-53.1256 -170.001,-52.116 z m -1694.991,76.843 c 26.418,92.3122 128.5418,111.47 200.23,160.969 76.7947,60.33 -67.8313,-124.1111 -40.722,-97.951 -42.6787,-43.7276 -99.1701,-62.7143 -159.508,-63.018 z m -473.656,345.688 c 7.7957,55.2381 59.9627,102.6209 72.434,161.104 39.3031,145.4931 48.5235,303.3394 28.449,449.936 67.0236,-69.0225 130.7956,-197.0474 82.782,-303.765 -31.854,-113.8889 -99.0125,-221.0541 -178.161,-306.445 z m -182.559,254.184 c 4.9031,165.7386 -58.2916,331.2497 -161.795,462.794 C 1056.0483,4549.5004 869.07982,4713.6532 653.5,4679 519.10089,4644.1033 424.31224,4521.7364 390.25508,4392.439 c -37.63556,-105.5848 -26.99018,-235.5742 8.18504,-336.743 -176.20154,44.814 -244.3542,270.4515 -155.79212,422.581 84.86471,177.4901 307.89036,242.53 481.19176,225.8582 109.51111,-9.4057 213.43409,-60.99 318.23324,-87.0052 132.9648,-61.1069 228.8361,-189.7201 285.36,-321.13 24.8853,-118.9761 40.3745,-258.0423 16.196,-373.704 -3.2907,1.0304 -8.5883,-1.6214 -10.335,0.558 z M 1761.5,5259.899 c -43.0274,60.949 -237.6341,36.634 -168.36,95.347 64.5443,69.5808 206.2364,32.4614 235.4824,-56.4097 -21.0092,-14.1222 -32.8062,-52.9439 -67.1224,-38.9373 z"
     fill="#c8e4f3"
     id="path4"
     sodipodi:nodetypes="cccccccccccccccccccccccccccccccccccccccccccccccccccccccccccccc"
     style="display:inline" />
  <path
     d="m 2404.848,2343.486 c -51.9739,5.2544 -88.6054,56.8361 -111.848,99.636 -35.448,56.9683 -30.0896,127.2799 -33.4998,192.172 -6.0346,76.4574 33.0363,160.0887 118.0398,165.721 82.995,5.7433 171.0831,-54.5375 180.417,-140.515 18.0015,-69.8903 -5.3278,-145.2682 -37.408,-207.446 -23.8828,-48.2571 -52.0707,-110.6434 -115.701,-109.568 z M 807.5,2351.293 c -59.51303,20.4736 -118.32303,67.2004 -135.51659,133.0877 -27.97192,48.5199 -31.55212,105.8517 -30.16404,162.2454 8.65154,53.5541 14.11578,125.0186 67.68063,152.7849 112.36252,58.9699 251.18838,-73.1143 247.2785,-195.2274 3.63885,-70.7425 -31.63923,-136.3298 -65.41009,-195.3542 C 873.59338,2382.3442 849.6014,2335.9627 807.5,2351.293 Z m 1563.524,45.915 c -51.3417,31.2497 -58.564,106.2242 -38.024,155.917 74.0911,36.109 126.9975,-63.6279 103.401,-123.201 -8.6249,-27.3313 -38.6064,-38.7404 -65.377,-32.716 z m -1591.158,0.742 c -65.74645,14.4375 -104.30521,124.5614 -52.116,166.617 61.55251,39.9634 109.80614,-53.3732 120.803,-104.95 12.94114,-37.9796 -28.98888,-76.8541 -68.687,-61.667 z m 964.634,447.125 c -120.3695,8.3305 -240.8982,15.0343 -361.702,12.2134 -61.0749,8.2479 -4.6415,38.1867 25.6224,40.8121 19.3593,61.6036 40.2698,122.4325 71.6635,179.0345 108.2416,247.4974 321.5056,-27.0954 342.1328,-229.2626 -22.7436,-7.3352 -52.8246,-1.4954 -77.7167,-2.7974 z m -3.5,36.953 c -95.4778,7.0324 -192.7063,14.8088 -286.898,15.655 -26.9071,-2.4885 -4.274,43.1853 2.726,63.2504 26.484,60.1916 52.3056,128.2567 105.908,169.2706 49.8455,30.3185 96.6072,-23.6993 130.45,-53.61 28.9083,-46.6774 65.5923,-99.0969 81.276,-156.594 14.2079,-33.3168 -0.1036,-44.74 -33.462,-37.972 z"
     id="path3"
     sodipodi:nodetypes="ccccccccccccccccccccccccccccccccccc"
     style="display:inline" />
</svg>
