<?xml version="1.0" encoding="UTF-8" standalone="no"?>
<!-- Created with Inkscape (http://www.inkscape.org/) -->

<svg
   xmlns:dc="http://purl.org/dc/elements/1.1/"
   xmlns:cc="http://creativecommons.org/ns#"
   xmlns:rdf="http://www.w3.org/1999/02/22-rdf-syntax-ns#"
   xmlns:svg="http://www.w3.org/2000/svg"
   xmlns="http://www.w3.org/2000/svg"
   xmlns:sodipodi="http://sodipodi.sourceforge.net/DTD/sodipodi-0.dtd"
   xmlns:inkscape="http://www.inkscape.org/namespaces/inkscape"
   width="800"
   height="800"
   id="svg2"
   version="1.1"
   inkscape:version="0.48.4 r9939"
   sodipodi:docname="hy-logo.svg"
   inkscape:export-filename="/home/kenanb/doc/downloads/hy/hylogo-final.png"
   inkscape:export-xdpi="45"
   inkscape:export-ydpi="45">
  <defs
     id="defs4" />
  <sodipodi:namedview
     id="base"
     pagecolor="#ffffff"
     bordercolor="#666666"
     borderopacity="1.0"
     inkscape:pageopacity="1"
     inkscape:pageshadow="2"
     inkscape:zoom="0.98994948"
     inkscape:cx="548.63417"
     inkscape:cy="397.15812"
     inkscape:document-units="px"
     inkscape:current-layer="layer2"
     showgrid="false"
     inkscape:window-width="1918"
     inkscape:window-height="1078"
     inkscape:window-x="1"
     inkscape:window-y="1"
     inkscape:window-maximized="0"
     inkscape:snap-bbox="false"
     inkscape:snap-global="false"
     fit-margin-top="16"
     fit-margin-left="16"
     fit-margin-right="16"
     fit-margin-bottom="16">
    <inkscape:grid
       type="xygrid"
       id="grid2985"
       empspacing="16"
       visible="true"
       enabled="true"
       snapvisiblegridlinesonly="true"
       originx="-115.20959px"
       originy="-32px" />
  </sodipodi:namedview>
  <metadata
     id="metadata7">
    <rdf:RDF>
      <cc:Work
         rdf:about="">
        <dc:format>image/svg+xml</dc:format>
        <dc:type
           rdf:resource="http://purl.org/dc/dcmitype/StillImage" />
        <dc:title />
      </cc:Work>
    </rdf:RDF>
  </metadata>
  <g
     inkscape:label="Layer 1"
     inkscape:groupmode="layer"
     id="layer1"
     transform="translate(-115.20959,-220.36216)"
     style="opacity:0.27007303;display:none"
     sodipodi:insensitive="true">
    <path
       inkscape:connector-curvature="0"
       style="font-size:150px;font-style:normal;font-variant:normal;font-weight:bold;font-stretch:normal;line-height:125%;letter-spacing:0px;word-spacing:0px;fill:#000000;fill-opacity:1;stroke:none;font-family:DejaVu Sans Mono;-inkscape-font-specification:DejaVu Sans Mono Bold"
       d="m 1127.125,972.86218 c -5.7617,3e-5 -10.6211,1.77932 -14.625,5.34375 -4.0527,3.51564 -7.5253,9.16017 -10.4062,16.875 l -34.0625,90.87497 22.5625,0 17.9375,-53.25 16.5312,47 5.2188,0 c 3.5888,0 6.4069,-0.5191 8.4375,-1.5312 0.7042,-1.3842 1.4141,-2.9775 2.125,-4.8125 l 1.625,-4.375 c 0.123,-0.3235 0.2521,-0.6453 0.375,-0.9688 l -24.1875,-61.8125 1.5937,-4.4062 c 2.0996,-5.41993 4.168,-8.84766 6.2188,-10.31252 2.0508,-1.51366 5.2929,-2.28123 9.6875,-2.28125 l 8.7187,0 0,-16.34375 -17.75,0 z"
       id="path3105" />
    <path
       id="path3113"
       d="m 1143.865,1103.1285 c 5.7617,0 10.6211,-1.7793 14.625,-5.3437 4.0527,-3.5157 7.5254,-9.1602 10.4063,-16.875 l 34.0625,-90.87503 -22.5625,0 -17.9375,53.25003 -16.5313,-47.00003 -5.2187,0 c -3.5889,2e-5 -6.407,0.5191 -8.4375,1.53125 -0.7043,1.38419 -1.4141,2.97748 -2.125,4.81248 l -1.625,4.375 c -0.1231,0.3235 -0.2521,0.6453 -0.375,0.9688 l 24.1875,61.8125 -1.5938,4.4062 c -2.0996,5.4199 -4.168,8.8477 -6.2187,10.3125 -2.0508,1.5137 -5.293,2.2813 -9.6875,2.2813 l -8.7188,0 0,16.3437 17.75,0 z"
       style="font-size:150px;font-style:normal;font-variant:normal;font-weight:bold;font-stretch:normal;line-height:125%;letter-spacing:0px;word-spacing:0px;fill:#000000;fill-opacity:1;stroke:none;font-family:DejaVu Sans Mono;-inkscape-font-specification:DejaVu Sans Mono Bold"
       inkscape:connector-curvature="0" />
    <g
       id="g3159"
       transform="matrix(3.7056938,0,0,3.7056938,-549.15167,-2089.7704)">
      <path
         id="path3105-1"
         d="m 259.67532,701.4406 c -5.7617,3e-5 -10.6211,1.77932 -14.625,5.34375 -4.0527,3.51564 -7.5253,9.16017 -10.4062,16.875 l -34.0625,90.87497 22.5625,0 17.9375,-53.25 16.5312,47 5.2188,0 c 3.5888,0 6.4069,-0.5191 8.4375,-1.5312 0.7042,-1.3842 1.4141,-2.9775 2.125,-4.8125 l 1.625,-4.375 c 0.123,-0.3235 0.2521,-0.6453 0.375,-0.9688 l -24.1875,-61.8125 1.5937,-4.4062 c 2.0996,-5.41993 4.168,-8.84766 6.2188,-10.31252 2.0508,-1.51366 5.2929,-2.28123 9.6875,-2.28125 l 8.7187,0 0,-16.34375 -17.75,0 z"
         style="font-size:150px;font-style:normal;font-variant:normal;font-weight:bold;font-stretch:normal;line-height:125%;letter-spacing:0px;word-spacing:0px;fill:#000000;fill-opacity:1;stroke:none;font-family:DejaVu Sans Mono;-inkscape-font-specification:DejaVu Sans Mono Bold"
         inkscape:connector-curvature="0" />
    </g>
  </g>
  <g
     inkscape:groupmode="layer"
     id="layer2"
     inkscape:label="Layer"
     transform="translate(-115.20959,-167.99998)">
    <g
       id="g4380"
       transform="translate(70.923045,4.6573104)">
      <path
         inkscape:connector-curvature="0"
         d="m 424,376 c -30.70325,0 -71.00099,1.93453 -108.15625,30.9375 -37.15526,29.00297 -68.93905,79.572 -101.90625,170.125 l -0.0312,0.0312 0,0.0625 -36,100 -0.0312,0.0312 0,0.0625 c -14.1947,39.7503 -38.24888,98.17928 -44.90625,152.6875 -3.32868,27.25411 -3.11264,55.04503 11.25,80.25 14.36264,25.20497 44.85158,41.14246 79.15625,41.8125 l 0.3125,0 5.36326,0 198.18708,10e-5 -22.18718,-64 -180.42566,-10e-5 c -61.50246,0 -16.28018,-106.09428 13.46875,-189.15625 C 310.49291,491.32309 324.80155,444.72669 424,440 l 41.375,0 -23.03125,-64 z m 0,80 c -38.92481,0 -73.78086,19.97667 -87.21875,47.40625 -56.59199,115.51626 -79.59795,197.97859 -118.2187,305.24995 -7.99944,29.85431 -15.11264,63.84878 19.66548,63.84878 l 25.52207,-0.50508 c 25.60612,-71.1243 51.22325,-142.24463 76.8125,-213.375 l 48,133.375 68.03125,0 -81.4375,-226.28125 C 383.78297,545.58564 400.43363,520.58241 424,520 l 70.21875,0 -23.03125,-64 z m 40.57309,495.9999 c 30.70325,0 71.00099,-1.93453 108.15625,-30.9375 37.15526,-29.00297 68.93905,-79.572 101.90625,-170.125 l 0.0312,-0.0312 0,-0.0625 36,-100 0.0312,-0.0312 0,-0.0625 c 14.1947,-39.7503 38.24888,-98.17928 44.90625,-152.6875 3.32868,-27.25411 3.11264,-55.04503 -11.25,-80.25 C 729.9916,392.60753 699.50266,376.67004 665.19799,376 l -0.3125,0 -5.36326,0 -198.18708,-10e-5 22.18718,64 180.42566,10e-5 c 61.50246,0 16.28018,106.09428 -13.46875,189.15625 -72.39906,207.52056 -86.7077,254.11696 -185.90615,258.84365 l -41.375,0 23.03125,64 z m 0,-80 c 38.92481,0 73.78086,-19.97667 87.21875,-47.40625 56.59199,-115.51626 79.59795,-197.97859 118.2187,-305.24995 7.99944,-29.85431 15.11264,-63.84878 -19.66548,-63.84878 L 624.82299,456 c -25.60612,71.1243 -51.22325,142.24463 -76.8125,213.375 l -48,-133.375 -68.03125,0 81.4375,226.28125 c -8.62662,20.13301 -25.27728,45.13624 -48.84365,45.71865 l -70.21875,0 23.03125,64 z"
         style="font-size:medium;font-style:normal;font-variant:normal;font-weight:normal;font-stretch:normal;text-indent:0;text-align:start;text-decoration:none;line-height:normal;letter-spacing:normal;word-spacing:normal;text-transform:none;direction:ltr;block-progression:tb;writing-mode:lr-tb;text-anchor:start;baseline-shift:baseline;color:#000000;fill:#324b64;fill-opacity:1;stroke:none;stroke-width:64;marker:none;visibility:visible;display:inline;overflow:visible;enable-background:accumulate;font-family:Sans;-inkscape-font-specification:Sans"
         id="path3027" />
      <g
         transform="matrix(0.55171121,0,0,0.55171121,152.06076,168.15948)"
         id="g4767">
        <path
           transform="matrix(1.8125425,0,0,1.8125425,-275.61659,-304.7962)"
           id="path4823"
           d="m 372.5,174.6875 c -15.07942,-0.12167 -30.20115,4.89485 -42.65625,13.59375 -9.29705,10.77953 -28.57797,12.36756 -32.46875,27.03125 10.22244,12.48089 1.55348,27.56118 -10.84375,35.125 -16.93831,9.02537 1.72241,21.14226 1.75,32.46875 -13.44978,12.51108 -7.05171,31.12498 7.5,39.8125 1.17743,10.78132 8.23416,18.98744 16.8125,24.59375 2.31044,2.25555 5.43462,3.94695 9.3125,4.90625 0.78161,1.67417 0.56512,2.4779 -0.1875,3.75 -0.91788,1.55142 -3.25057,3.56885 -6.03125,5.78125 -2.78068,2.2124 -5.9808,4.68709 -8.40625,8.09375 -2.42545,3.40666 -3.88422,7.9987 -2.8125,13.1875 2.24294,10.85942 8.83105,19.38602 14.03125,27.5625 5.14367,8.0876 8.88274,15.48898 7.59375,24.5 -0.93857,3.28337 -4.50553,5.76222 -9.125,6.65625 -4.66444,0.90273 -9.74759,-0.21802 -11.75,-2.09375 -1.91466,-1.79351 -2.69211,-6.225 -2.4375,-10.5 0.25461,-4.275 1.25,-7.90625 1.25,-7.90625 a 3.5273523,3.5273523 0 0 0 0.15625,-0.96875 c 0,0 -3.78582,-3.76038 -5.3125,-3.625 -1.52668,0.13538 -3.53794,0.80778 -5.28125,2.4375 -3.48662,3.25944 -5.78125,9.42944 -5.78125,21.6875 0,10.11507 8.0593,17.33344 17.25,21.53125 9.1907,4.19781 19.95962,5.88577 28.375,4.625 13.11602,-1.96502 22.4736,-11.58718 27.46875,-23.1875 4.99515,-11.60032 5.98416,-25.35896 2.40625,-37.0625 -2.21905,-7.25864 -6.10451,-12.11902 -7.34375,-14.625 -0.46472,-0.93974 -0.46633,-1.17594 -0.46875,-1.1875 -0.002,0.0324 0.29253,-0.21854 0.90625,-0.625 7.087,8.15485 11.45399,24.03427 16.0625,38.65625 2.47696,7.85895 5.11869,15.31152 8.96875,21.15625 3.85006,5.84473 9.4406,10.21875 16.71875,10.21875 7.56711,0 13.42004,-3.61165 16.59375,-9 3.17371,-5.38835 4.09954,-12.19554 3.90625,-19.375 -0.11244,-4.17654 -0.64961,-8.48538 -1.4375,-12.78125 0.4323,1.2058 0.87548,2.40443 1.4375,3.59375 0.0365,0.096 0.0877,0.18591 0.125,0.28125 4.20345,10.73195 13.38467,17.22695 23.53125,20.03125 10.23672,2.82921 21.58755,2.1747 31.125,-1.15625 10.51202,-3.66023 16.4508,-11.85529 20.125,-20.6875 3.6742,-8.83221 5.44566,-18.52323 7.90625,-26.375 a 3.5273523,3.5273523 0 0 0 0.15625,-0.71875 c 0.47873,-4.96136 2.2287,-7.53263 4.4375,-9.40625 2.2088,-1.87362 5.0364,-2.91579 7.625,-3.78125 1.2943,-0.43273 2.51085,-0.78237 3.75,-1.40625 0.61958,-0.31194 1.26788,-0.71201 1.9375,-1.4375 0.66962,-0.72549 1.29058,-1.97884 1.28125,-3.21875 -0.0187,-2.47983 -1.3628,-3.69514 -2.75,-4.96875 -1.3872,-1.27361 -3.27983,-2.63478 -5.90625,-4.375 a 3.5273523,3.5273523 0 0 0 -0.84375,-0.40625 c -10.10542,-3.2779 -19.89399,0.63285 -27.03125,7.09375 -7.13726,6.4609 -12.10807,15.44902 -13.53125,23.96875 -0.97301,5.82488 -4.36936,12.9369 -8,16.15625 -1.81532,1.60967 -3.42385,2.21033 -4.9375,2.0625 -1.51365,-0.14783 -3.50244,-1.08316 -5.96875,-4.28125 -4.82498,-6.25664 -4.49185,-16.06752 -4.71875,-26.4375 -0.11345,-5.18499 -0.42411,-10.46564 -2.09375,-15.4375 -1.66964,-4.97186 -4.89156,-9.6313 -10.28125,-12.78125 -2.24859,-1.31415 -3.45734,-2.46925 -3.96875,-3.21875 -0.51141,-0.7495 -0.49137,-0.96664 -0.40625,-1.46875 0.17023,-1.00422 1.86932,-3.37212 4.4375,-5.9375 1.43992,-1.43835 3.07275,-2.9525 4.5625,-4.65625 0.28014,-0.15814 0.56522,-0.30899 0.84375,-0.46875 11.08515,-6.35836 14.87492,-19.92026 23.03125,-30.625 8.08505,-14.21649 -15.80582,-26.57672 0.28125,-38.4375 11.38748,-18.35764 -18.71563,-23.24149 -21.0625,-38.53125 5.52108,-7.07349 9.30975,-19.30272 -1.03125,-25.90625 -15.39103,-8.41439 -28.84075,-20.62641 -45.5,-26.875 -7.48324,-3.09177 -15.3825,-4.56127 -23.28125,-4.625 z"
           style="fill:#324b64;fill-opacity:1;fill-rule:nonzero"
           inkscape:connector-curvature="0" />
        <path
           id="path4786"
           d="m 368.5,182.6875 c -5.91119,0.19466 -11.7873,1.6496 -17.09375,4.4375 -40.87154,24.22655 -59.29982,78.16008 -45.25,123.03125 6.80872,13.08565 -2.75882,35.85544 17.8125,39.40625 8.22469,13.69954 -19.92642,16.05056 -16.40625,33.09375 4.06676,19.68957 24.87466,32.83878 21.65625,53.625 -2.73147,10.16848 -20.16251,12.45197 -26.75,6.28125 -6.58749,-6.17067 -2.1875,-21.90625 -2.1875,-21.90625 0,-6e-5 -9.28125,-3.1211 -9.28125,20.46875 0,16.41059 26.66615,24.92392 41.59375,22.6875 23.39653,-3.50524 33.58401,-34.21336 27,-55.75 -4.01576,-13.13578 -14.08568,-17.18002 -2.75,-21.84375 18.89192,17.41576 17.13135,70.90625 40.96875,70.90625 26.27425,0 16.76722,-44.62977 6.625,-64.03125 13.53331,2.88396 11.89764,17.77826 17.1875,28.71875 7.40827,19.46051 32.64996,23.26238 50.3125,17.09375 18.78257,-6.53998 20.69742,-28.45898 25.8125,-44.78125 2.21904,-22.99703 32.39525,-11.7782 11.96875,-25.3125 -17.41791,-5.64985 -33.47565,13.16949 -36,28.28125 -2.19653,13.14943 -13.8095,30.25397 -25.1875,15.5 -11.75299,-15.2403 2.57624,-42.82554 -16.0625,-53.71875 -20.22844,-11.82223 16.87733,-20.07202 4.96875,-33.8125 2.88512,-15.06216 7.83547,-29.92822 7.84375,-45.40625 -1.96404,-32.43765 -23.19668,-59.87568 -44.96875,-82.40625 -6.97258,-9.31648 -18.02993,-14.23594 -29.28125,-14.5625 -0.84384,-0.0245 -1.68679,-0.0278 -2.53125,0 z m 56.3125,134.4375 c 3.36242,-0.23238 6.45152,2.22293 7.78125,9.0625 3.3773,8.33288 -4.14309,20.68819 -13.875,16.40625 -12.86867,-6.80895 -2.4991,-24.87488 6.09375,-25.46875 z m -97.28125,1 c 3.42434,0.11089 6.25689,2.84997 6.78125,9.71875 2.26488,8.63726 -7.08202,19.69944 -16.0625,15.03125 -12.0702,-8.23726 0.53016,-25.03339 9.28125,-24.75 z M 504.375,373.5 c 5.17264,0.12312 -7.41937,4.44292 -8.6875,9.46875 -7.16855,14.54272 -3.43939,22.15519 -13.84375,39.6875 3.34932,-26.9807 5.73096,-46.43554 19.15625,-48.9375 1.54849,-0.16455 2.63605,-0.23634 3.375,-0.21875 z m -138.53125,14.21875 c 17.59821,7.9282 12.57268,17.3815 16.625,38.78125 -7.19252,-17.18032 -7.75412,-25.68218 -16.625,-38.78125 z m -9.375,41.65625 c -3.70755,11.69208 -11.78441,27.90384 -25.875,29.125 -11.39488,0.49014 -24.61736,-2.53776 -31.96875,-11.84375 10.59997,9.08712 36.82121,7.38873 49.84375,-6.5625 l 8,-10.71875 z"
           style="fill:#e1af64;fill-opacity:1;fill-rule:nonzero"
           inkscape:connector-curvature="0"
           transform="matrix(1.8125425,0,0,1.8125425,-275.61659,-304.7962)" />
      </g>
    </g>
  </g>
</svg>
