<?xml version="1.0" encoding="UTF-8" standalone="no"?>
<!-- Created with Inkscape (http://www.inkscape.org/) -->

<svg
   xmlns:dc="http://purl.org/dc/elements/1.1/"
   xmlns:cc="http://creativecommons.org/ns#"
   xmlns:rdf="http://www.w3.org/1999/02/22-rdf-syntax-ns#"
   xmlns:svg="http://www.w3.org/2000/svg"
   xmlns="http://www.w3.org/2000/svg"
   xmlns:sodipodi="http://sodipodi.sourceforge.net/DTD/sodipodi-0.dtd"
   xmlns:inkscape="http://www.inkscape.org/namespaces/inkscape"
   width="187.22501"
   height="164.2733"
   id="svg2"
   version="1.1"
   inkscape:version="0.48.3.1 r9886"
   sodipodi:docname="hy_logo.svg"
   inkscape:export-filename="/home/cwebber/devel/hy/docs/_static/hy_logo-paths.png"
   inkscape:export-xdpi="200"
   inkscape:export-ydpi="200">
  <defs
     id="defs4" />
  <sodipodi:namedview
     id="base"
     pagecolor="#ffffff"
     bordercolor="#666666"
     borderopacity="1.0"
     inkscape:pageopacity="0.0"
     inkscape:pageshadow="2"
     inkscape:zoom="2.8"
     inkscape:cx="124.29468"
     inkscape:cy="108.77929"
     inkscape:document-units="px"
     inkscape:current-layer="layer1"
     showgrid="false"
     fit-margin-top="0"
     fit-margin-left="0"
     fit-margin-right="0"
     fit-margin-bottom="0"
     inkscape:window-width="1440"
     inkscape:window-height="874"
     inkscape:window-x="1440"
     inkscape:window-y="0"
     inkscape:window-maximized="1" />
  <metadata
     id="metadata7">
    <rdf:RDF>
      <cc:Work
         rdf:about="">
        <dc:format>image/svg+xml</dc:format>
        <dc:type
           rdf:resource="http://purl.org/dc/dcmitype/StillImage" />
        <dc:title></dc:title>
      </cc:Work>
    </rdf:RDF>
  </metadata>
  <g
     inkscape:label="Layer 1"
     inkscape:groupmode="layer"
     id="layer1"
     transform="translate(-148.88306,-183.07397)">
    <text
       xml:space="preserve"
       style="font-size:12px;font-style:normal;font-variant:normal;font-weight:normal;font-stretch:normal;line-height:125%;letter-spacing:0px;word-spacing:0px;fill:#000000;fill-opacity:1;stroke:none;font-family:TeXGyreBonum;-inkscape-font-specification:TeXGyreBonum"
       x="242.85715"
       y="449.50504"
       id="text2985"
       sodipodi:linespacing="125%"><tspan
         sodipodi:role="line"
         id="tspan2987"
         x="242.85715"
         y="449.50504"
         style="font-size:100px" /></text>
    <g
       transform="scale(-1,1)"
       style="font-size:100px;font-style:normal;font-variant:normal;font-weight:normal;font-stretch:normal;line-height:125%;letter-spacing:0px;word-spacing:0px;fill:#000000;fill-opacity:1;stroke:none;font-family:TeXGyreBonum;-inkscape-font-specification:TeXGyreBonum Italic"
       id="text2993">
      <path
         d="m -195.57143,292.36218 8.4,-48.9 c 0.3,-1.6 0.4,-3.1 0.4,-4.6 0,-11.59999 -10.20001,-17.2 -21.8,-17.2 -10.09999,0 -19.9,4.00001 -19.9,9.3 0,1.7 1.4,2.5 4.1,2.5 2.1,0 4.3,-1.1 6.4,-3.3 3,-3.19999 6.4,-4.8 10.2,-4.8 7.79999,0 11.9,5.40001 11.9,13.4 0,1.5 -0.2,3.2 -0.5,4.9 l -1.4,8.3 c -4.59999,-6.09999 -7.80001,-8.4 -15.3,-8.4 -11.19999,0 -15.8,6.70001 -17.4,15.9 l -5.6,24 c -1.9,8.99999 -7.1,12.1 -12.2,12.1 -1.9,0 -3.8,-0.5 -5.7,-1.5 l -1.7,2.3 c 4.5,3.5 8.8,5.2 12.9,5.2 5.99999,0 12.4,-4.50001 14.8,-13.1 l 7.8,-33.9 c 1.2,-3.39999 4.5,-6.3 8.7,-6.3 6.09999,0 8.6,2.10001 12.9,7.8 l -6.2,36.3 9.2,0"
         style="font-style:italic;font-family:TeXGyreBonum;-inkscape-font-specification:TeXGyreBonum Italic"
         id="path3256" />
    </g>
    <g
       transform="scale(1,-1)"
       style="font-size:100px;font-style:normal;font-variant:normal;font-weight:normal;font-stretch:normal;line-height:125%;letter-spacing:0px;word-spacing:0px;fill:#000000;fill-opacity:1;stroke:none;font-family:TeXGyreBonum;-inkscape-font-specification:TeXGyreBonum Italic"
       id="text2993-0">
      <path
         d="m 288.50714,-244.1122 8.4,-48.9 c 0.3,-1.6 0.4,-3.1 0.4,-4.6 0,-11.59999 -10.20001,-17.2 -21.8,-17.2 -10.09999,0 -19.9,4.00001 -19.9,9.3 0,1.7 1.4,2.5 4.1,2.5 2.1,0 4.3,-1.1 6.4,-3.3 3,-3.19999 6.4,-4.8 10.2,-4.8 7.79999,0 11.9,5.40001 11.9,13.4 0,1.5 -0.2,3.2 -0.5,4.9 l -1.4,8.3 c -4.6,-6.09999 -7.80001,-8.4 -15.3,-8.4 -11.19999,0 -15.8,6.70001 -17.4,15.9 l -5.6,24 c -1.9,8.99999 -7.10001,12.1 -12.2,12.1 -1.9,0 -3.8,-0.5 -5.7,-1.5 l -1.7,2.3 c 4.49999,3.5 8.8,5.2 12.9,5.2 5.99999,0 12.4,-4.50001 14.8,-13.1 l 7.8,-33.9 c 1.2,-3.39999 4.5,-6.3 8.7,-6.3 6.09999,0 8.6,2.10001 12.9,7.8 l -6.2,36.3 9.2,0"
         style="font-style:italic;font-family:TeXGyreBonum;-inkscape-font-specification:TeXGyreBonum Italic"
         id="path3253" />
    </g>
    <g
       transform="matrix(0.76181009,-0.61556036,0.30983361,1.0623103,0,0)"
       style="font-size:140.70762634px;font-style:normal;font-variant:normal;font-weight:normal;font-stretch:normal;line-height:125%;letter-spacing:0px;word-spacing:0px;fill:#000000;fill-opacity:1;stroke:none;font-family:TeXGyreBonum;-inkscape-font-specification:TeXGyreBonum"
       id="text3089">
      <path
         d="m 119.16228,379.55276 0,-5.34689 c -11.53801,-4.08052 -15.05571,-16.32212 -15.05571,-52.48394 l 0,-6.47256 c 0,-36.16182 3.5177,-48.40342 15.05571,-52.48394 l 0,-5.34689 c -4.64334,0.70354 -6.61326,1.26637 -9.14599,2.53274 -20.121173,9.56811 -19.276948,37.70966 -19.276948,58.53437 0,34.33263 3.236287,46.85565 14.352178,55.57951 4.22122,3.23627 7.3168,4.36194 14.07076,5.4876"
         style=""
         id="path3250" />
    </g>
    <g
       transform="matrix(0.76181009,-0.61556036,0.30983361,1.0623103,0,0)"
       style="font-size:140.70762634px;font-style:normal;font-variant:normal;font-weight:normal;font-stretch:normal;line-height:125%;letter-spacing:0px;word-spacing:0px;fill:#000000;fill-opacity:1;stroke:none;font-family:TeXGyreBonum;-inkscape-font-specification:TeXGyreBonum"
       id="text3089-6">
      <path
         d="m 260.12941,384.13592 c 0,-34.61404 -3.23629,-46.85565 -14.35218,-55.57951 -4.22122,-3.23628 -7.3168,-4.36194 -14.07076,-5.4876 l 0,5.34689 c 11.53801,4.08052 15.05571,16.32212 15.05571,52.48394 l 0,6.47255 c 0,36.16183 -3.5177,48.40343 -15.05571,52.48395 l 0,5.34689 c 4.64334,-0.70354 6.61326,-1.26637 9.14599,-2.53274 20.40259,-9.56811 19.27695,-38.69462 19.27695,-58.53437"
         style=""
         id="path3247" />
    </g>
  </g>
</svg>
